#!OML:ASF H:\GeneralSubjects\Female5\Project 1\Capture day 1\Session 1\Female5.ASF
:FULLY-SPECIFIED
:DEGREES
353
root 6.69944 15.8254 2.42198 -177.675 -35.5312 -168.704
lowerback 4.94896 1.32677 3.105
upperback -11.5784 1.81288 4.7886
thorax -15.7291 0.464269 3.44197
lowerneck -18.0274 -1.8711 -3.0863
upperneck 39.1658 -6.49147 3.99396
head 17.8024 -3.5537 0.751439
rclavicle 5.66536e-015 2.98177e-014
rhumerus -43.099 10.0486 -75.6177
rradius 28.5769
rwrist 2.08253
rhand -30.0726 -18.0651
rfingers 7.12502
rthumb -3.38757 -48.0179
lclavicle 5.66536e-015 2.98177e-014
lhumerus -47.4046 -1.42029 85.7392
lradius 32.8907
lwrist -9.72291
lhand -25.9452 32.4018
lfingers 7.12502
lthumb 0.598652 62.3807
rfemur 6.06453 25.7825 45.8811
rtibia -16.9022
rfoot -32.2366 -33.7204
rtoes 21.1164
lfemur -16.9643 -22.0996 5.33901
ltibia 16.9032
lfoot -32.1458 -9.21186
ltoes -18.1651
354
root 6.70132 15.8271 2.4187 -177.646 -35.5068 -168.697
lowerback 5.00277 1.325 3.06468
upperback -11.5694 1.81199 4.79524
thorax -15.7549 0.470444 3.47221
lowerneck -18.1717 -1.84346 -3.01886
upperneck 39.2008 -6.44288 3.9458
head 17.8518 -3.52393 0.725195
rclavicle 1.13307e-014 -1.90833e-014
rhumerus -43.0836 10.0229 -75.5243
rradius 28.4741
rwrist 2.11728
rhand -30.1362 -18.2119
rfingers 7.12502
rthumb -3.44895 -48.1638
lclavicle 1.13307e-014 -1.90833e-014
lhumerus -47.6966 -1.07269 85.3412
lradius 32.5619
lwrist -9.98781
lhand -25.0536 32.4306
lfingers 7.12502
lthumb 1.45984 62.4054
rfemur 6.02939 25.828 45.913
rtibia -16.868
rfoot -32.1573 -33.8131
rtoes 21.0045
lfemur -16.9953 -22.1592 5.35923
ltibia 16.9502
lfoot -31.9001 -10.2383
ltoes -16.2999
355
root 6.70535 15.827 2.41683 -177.579 -35.4709 -168.691
lowerback 5.03758 1.32778 2.99941
upperback -11.5495 1.81388 4.80393
thorax -15.7557 0.481548 3.51721
lowerneck -18.4983 -1.82799 -2.78336
upperneck 39.3009 -6.42488 3.77553
head 17.9748 -3.4916 0.60289
rclavicle 1.4392e-013 -3.97569e-014
rhumerus -43.0032 10.0564 -75.4999
rradius 28.3683
rwrist 2.13079
rhand -30.215 -18.1856
rfingers 7.12502
rthumb -3.52511 -48.1362
lclavicle 1.4392e-013 -3.97569e-014
lhumerus -47.9297 -0.746924 84.9659
lradius 32.2062
lwrist -10.4597
lhand -25.5718 32.7163
lfingers 7.12502
lthumb 0.959306 62.6938
rfemur 5.92657 25.9081 45.9433
rtibia -16.7881
rfoot -32.1212 -34.0663
rtoes 20.0304
lfemur -17.1364 -21.8591 5.38291
ltibia 17.1286
lfoot -31.636 -10.6176
ltoes -15.2053
356
root 6.71205 15.8273 2.41704 -177.492 -35.4411 -168.712
lowerback 5.10948 1.33033 2.92404
upperback -11.5492 1.81426 4.7805
thorax -15.8038 0.490936 3.53319
lowerneck -18.1948 -1.84633 -2.87602
upperneck 39.0266 -6.48601 4.01772
head 17.7599 -3.49879 0.727202
rclavicle 2.50469e-014 5.92378e-014
rhumerus -42.9795 10.1217 -75.5726
rradius 28.3098
rwrist 2.06192
rhand -30.3317 -18.1351
rfingers 7.12502
rthumb -3.63782 -48.0838
lclavicle 2.50469e-014 5.92378e-014
lhumerus -48.0615 -0.358856 84.4633
lradius 31.7584
lwrist -10.7589
lhand -25.558 32.8939
lfingers 7.12502
lthumb 0.972634 62.8714
rfemur 5.80969 25.9812 45.9276
rtibia -16.7518
rfoot -32.1016 -34.3068
rtoes 19.1293
lfemur -17.3264 -21.5605 5.4165
ltibia 17.3437
lfoot -32.067 -9.06795
ltoes -17.5064
357
root 6.71588 15.8275 2.41573 -177.403 -35.4148 -168.743
lowerback 5.17458 1.33938 2.88092
upperback -11.5843 1.8233 4.76602
thorax -15.8918 0.498739 3.54252
lowerneck -18.1029 -1.87118 -3.00441
upperneck 38.9765 -6.56188 4.2066
head 17.7288 -3.52648 0.822412
rclavicle -5.71506e-014 -3.93594e-014
rhumerus -42.9967 10.1207 -75.5444
rradius 28.2054
rwrist 1.99644
rhand -30.3864 -17.8883
rfingers 7.12502
rthumb -3.69061 -47.8361
lclavicle -5.71506e-014 -3.93594e-014
lhumerus -48.1421 0.0660037 83.9845
lradius 31.1366
lwrist -10.6424
lhand -25.4618 32.6788
lfingers 7.12502
lthumb 1.06551 62.6559
rfemur 5.73375 26.0372 45.8854
rtibia -16.7706
rfoot -32.0378 -34.2673
rtoes 19.5441
lfemur -17.4523 -21.4971 5.46881
ltibia 17.3925
lfoot -32.365 -8.11555
ltoes -18.8048
